<svg preserveAspectRatio="none" overflow="visible" style="display: block;" width="324.076" height="575.1" viewBox="0 0 324.076 575.1" fill="none" xmlns="http://www.w3.org/2000/svg">
<path id="Subtract" d="M297.076 0C311.988 1.77772e-05 324.076 12.0883 324.076 27V283.051C315.232 283.051 308.062 291.513 308.062 301.951C308.063 312.226 315.01 320.586 323.663 320.845L324.076 320.851V548.1C324.076 563.011 311.988 575.1 297.076 575.1H27C12.0884 575.099 0 563.011 0 548.1V320.851C8.84371 320.851 16.0135 312.389 16.0137 301.951C16.0137 291.513 8.84382 283.051 0 283.051V27C4.74518e-06 12.0884 12.0885 0.000171225 27 0H297.076Z" fill="#F0F7EE"/>
</svg>
